<svg width="110" height="52" viewBox="0 0 110 52" fill="none" xmlns="http://www.w3.org/2000/svg">
<path d="M-5.86063e-05 31.78L29.3299 14.14V19.25L6.92994 32.97L29.3299 46.62V51.87L-5.86063e-05 34.37V31.78Z" fill="#FFAF00"/>
<path d="M36.0368 32.97C36.0368 29.5166 36.7368 26.3666 38.1368 23.52C39.5835 20.6266 41.5668 18.3166 44.0868 16.59C46.6068 14.8633 49.4768 14 52.6968 14C55.7302 14 58.4368 14.8166 60.8168 16.45C63.2435 18.0366 65.1335 19.9733 66.4868 22.26V-2.57492e-05H71.2468V45.36C71.2468 46.0133 71.3868 46.5033 71.6668 46.83C71.9468 47.11 72.3668 47.2733 72.9268 47.32V51.1C71.9935 51.24 71.2702 51.2866 70.7568 51.24C69.7768 51.1933 68.9135 50.7966 68.1668 50.05C67.4202 49.3033 67.0468 48.4866 67.0468 47.6V44.03C65.6002 46.41 63.6402 48.3 61.1668 49.7C58.6935 51.1 56.1268 51.8 53.4668 51.8C50.9468 51.8 48.6135 51.2866 46.4668 50.26C44.3668 49.2333 42.5235 47.8333 40.9368 46.06C39.3968 44.2866 38.1835 42.28 37.2968 40.04C36.4568 37.7533 36.0368 35.3966 36.0368 32.97ZM66.4868 38.57V27.3C65.8802 25.62 64.9002 24.1033 63.5468 22.75C62.1935 21.35 60.6535 20.2533 58.9268 19.46C57.2468 18.62 55.5668 18.2 53.8868 18.2C51.9268 18.2 50.1535 18.62 48.5668 19.46C46.9802 20.2533 45.6035 21.35 44.4368 22.75C43.3168 24.15 42.4535 25.7366 41.8468 27.51C41.2402 29.2833 40.9368 31.1033 40.9368 32.97C40.9368 34.93 41.2635 36.7966 41.9168 38.57C42.6168 40.3433 43.5968 41.93 44.8568 43.33C46.1168 44.6833 47.5635 45.7333 49.1968 46.48C50.8302 47.2266 52.6035 47.6 54.5168 47.6C55.7302 47.6 56.9902 47.3666 58.2968 46.9C59.6035 46.4333 60.8402 45.8033 62.0068 45.01C63.2202 44.17 64.2235 43.19 65.0168 42.07C65.8102 40.95 66.3002 39.7833 66.4868 38.57Z" fill="#992800"/>
<path d="M109.962 34.37L80.6317 51.87V46.62L103.032 32.97L80.6317 19.25V14.14L109.962 31.78V34.37Z" fill="#3C7F72"/>
</svg>
