<svg width="472" height="167" viewBox="0 0 472 167" fill="none" xmlns="http://www.w3.org/2000/svg">
<path d="M424.5 121C420.91 121 418 123.91 418 127.5C418 131.09 420.91 134 424.5 134C428.09 134 431 131.09 431 127.5C431 123.91 428.09 121 424.5 121ZM424.5 132.897C421.52 132.897 419.103 130.48 419.103 127.5C419.103 124.52 421.52 122.103 424.5 122.103C427.48 122.103 429.897 124.52 429.897 127.5C429.897 130.48 427.48 132.897 424.5 132.897ZM424.581 125.168C425.35 125.168 425.873 125.659 425.931 126.378C425.935 126.439 425.986 126.486 426.047 126.486H426.869C426.907 126.486 426.937 126.455 426.937 126.418C426.937 125.16 425.945 124.279 424.577 124.279C422.982 124.279 422.062 125.356 422.062 127.134V127.893C422.062 129.659 422.982 130.721 424.577 130.721C425.941 130.721 426.937 129.868 426.937 128.669C426.937 128.632 426.907 128.601 426.869 128.601H426.045C425.984 128.601 425.935 128.648 425.929 128.707C425.868 129.376 425.347 129.836 424.58 129.836C423.632 129.836 423.098 129.141 423.098 127.898V127.134C423.1 125.872 423.635 125.168 424.581 125.168Z" fill="#992800"/>
<path d="M43.4212 62.92L76.9413 42.76V48.6L51.3412 64.28L76.9413 79.88V85.88L43.4212 65.88V62.92ZM109.156 149.8C106.17 149.8 103.396 149.24 100.836 148.12C98.2763 146.947 96.0629 145.373 94.1963 143.4C92.3296 141.373 90.8629 139.053 89.7963 136.44C88.7829 133.827 88.2763 131.027 88.2763 128.04C88.2763 124.147 89.1563 120.573 90.9163 117.32C92.7296 114.067 95.2096 111.48 98.3563 109.56C101.503 107.587 105.076 106.6 109.076 106.6C113.183 106.6 116.756 107.587 119.796 109.56C122.89 111.533 125.316 114.147 127.076 117.4C128.836 120.6 129.716 124.12 129.716 127.96C129.716 128.387 129.716 128.813 129.716 129.24C129.716 129.613 129.69 129.907 129.636 130.12H93.9563C94.2229 133.107 95.0496 135.773 96.4363 138.12C97.8763 140.413 99.7163 142.253 101.956 143.64C104.25 144.973 106.73 145.64 109.396 145.64C112.116 145.64 114.676 144.947 117.076 143.56C119.53 142.173 121.236 140.36 122.196 138.12L126.916 139.4C126.063 141.373 124.756 143.16 122.996 144.76C121.236 146.36 119.156 147.613 116.756 148.52C114.41 149.373 111.876 149.8 109.156 149.8ZM93.7963 126.2H124.596C124.383 123.16 123.556 120.493 122.116 118.2C120.73 115.907 118.89 114.12 116.596 112.84C114.356 111.507 111.876 110.84 109.156 110.84C106.436 110.84 103.956 111.507 101.716 112.84C99.4763 114.12 97.6363 115.933 96.1963 118.28C94.8096 120.573 94.0096 123.213 93.7963 126.2ZM264.776 149.8C261.789 149.8 259.016 149.24 256.456 148.12C253.949 146.947 251.762 145.373 249.896 143.4C248.082 141.373 246.669 139.08 245.656 136.52C244.642 133.907 244.136 131.16 244.136 128.28C244.136 125.293 244.642 122.52 245.656 119.96C246.669 117.347 248.109 115.053 249.976 113.08C251.842 111.053 254.029 109.48 256.536 108.36C259.096 107.187 261.869 106.6 264.856 106.6C267.842 106.6 270.589 107.187 273.096 108.36C275.602 109.48 277.789 111.053 279.656 113.08C281.522 115.053 282.962 117.347 283.976 119.96C284.989 122.52 285.496 125.293 285.496 128.28C285.496 131.16 284.989 133.907 283.976 136.52C282.962 139.08 281.522 141.373 279.656 143.4C277.842 145.373 275.656 146.947 273.096 148.12C270.589 149.24 267.816 149.8 264.776 149.8ZM249.656 128.36C249.656 131.453 250.322 134.28 251.656 136.84C253.042 139.347 254.882 141.347 257.176 142.84C259.469 144.28 262.002 145 264.776 145C267.549 145 270.082 144.253 272.376 142.76C274.669 141.267 276.509 139.24 277.896 136.68C279.282 134.067 279.976 131.24 279.976 128.2C279.976 125.107 279.282 122.28 277.896 119.72C276.509 117.16 274.669 115.133 272.376 113.64C270.082 112.147 267.549 111.4 264.776 111.4C262.002 111.4 259.469 112.173 257.176 113.72C254.936 115.267 253.122 117.32 251.736 119.88C250.349 122.387 249.656 125.213 249.656 128.36Z" fill="#D34A24"/>
<path d="M84.6063 64.28C84.6063 60.3333 85.4063 56.7333 87.0063 53.48C88.6596 50.1733 90.9263 47.5333 93.8063 45.56C96.6863 43.5867 99.9663 42.6 103.646 42.6C107.113 42.6 110.206 43.5333 112.926 45.4C115.7 47.2133 117.86 49.4267 119.406 52.04V26.6H124.846V78.44C124.846 79.1867 125.006 79.7467 125.326 80.12C125.646 80.44 126.126 80.6267 126.766 80.68V85C125.7 85.16 124.873 85.2133 124.286 85.16C123.166 85.1067 122.18 84.6533 121.326 83.8C120.473 82.9467 120.046 82.0133 120.046 81V76.92C118.393 79.64 116.153 81.8 113.326 83.4C110.5 85 107.566 85.8 104.526 85.8C101.646 85.8 98.9796 85.2133 96.5263 84.04C94.1263 82.8667 92.0196 81.2667 90.2063 79.24C88.4463 77.2133 87.0596 74.92 86.0463 72.36C85.0863 69.7467 84.6063 67.0533 84.6063 64.28ZM119.406 70.68V57.8C118.713 55.88 117.593 54.1467 116.046 52.6C114.5 51 112.74 49.7467 110.766 48.84C108.846 47.88 106.926 47.4 105.006 47.4C102.766 47.4 100.74 47.88 98.9263 48.84C97.1129 49.7467 95.5396 51 94.2063 52.6C92.9263 54.2 91.9396 56.0133 91.2463 58.04C90.5529 60.0667 90.2063 62.1467 90.2063 64.28C90.2063 66.52 90.5796 68.6533 91.3263 70.68C92.1263 72.7067 93.2463 74.52 94.6863 76.12C96.1263 77.6667 97.7796 78.8667 99.6463 79.72C101.513 80.5733 103.54 81 105.726 81C107.113 81 108.553 80.7333 110.046 80.2C111.54 79.6667 112.953 78.9467 114.286 78.04C115.673 77.08 116.82 75.96 117.726 74.68C118.633 73.4 119.193 72.0667 119.406 70.68ZM86.705 92.2L48.945 149H42.785L80.545 92.2H86.705ZM225.459 90.6H230.899V139.56C230.899 141.64 231.272 143 232.019 143.64C232.765 144.28 233.672 144.6 234.739 144.6C235.699 144.6 236.659 144.493 237.619 144.28C238.579 144.067 239.405 143.853 240.099 143.64L241.059 148.04C240.045 148.467 238.792 148.813 237.299 149.08C235.859 149.347 234.605 149.48 233.539 149.48C231.085 149.48 229.112 148.76 227.619 147.32C226.179 145.88 225.459 143.907 225.459 141.4V90.6ZM411.722 112.12C408.095 112.227 404.895 113.24 402.122 115.16C399.402 117.08 397.482 119.72 396.362 123.08V149H390.922V107.32H396.042V117.32C397.482 114.387 399.375 112.013 401.722 110.2C404.122 108.387 406.655 107.373 409.322 107.16C409.855 107.107 410.309 107.08 410.682 107.08C411.109 107.08 411.455 107.107 411.722 107.16V112.12Z" fill="#992800"/>
<path d="M169.092 65.88L135.572 85.88V79.88L161.172 64.28L135.572 48.6V42.76L169.092 62.92V65.88ZM149.416 149L132.536 107.32H138.216L152.456 143.56L166.776 107.32H172.136L155.256 149H149.416ZM315.874 149.8C312.407 149.8 309.287 148.893 306.514 147.08C303.794 145.267 301.634 143.027 300.034 140.36V166.04H294.594V107.32H299.474V115.4C301.127 112.787 303.34 110.68 306.114 109.08C308.887 107.427 311.847 106.6 314.994 106.6C317.874 106.6 320.514 107.213 322.914 108.44C325.314 109.613 327.394 111.213 329.154 113.24C330.914 115.267 332.274 117.587 333.234 120.2C334.247 122.76 334.754 125.427 334.754 128.2C334.754 132.093 333.954 135.693 332.354 139C330.807 142.253 328.62 144.867 325.794 146.84C322.967 148.813 319.66 149.8 315.874 149.8ZM314.354 145C316.647 145 318.7 144.547 320.514 143.64C322.327 142.68 323.874 141.4 325.154 139.8C326.487 138.2 327.5 136.413 328.194 134.44C328.887 132.413 329.234 130.333 329.234 128.2C329.234 125.96 328.834 123.827 328.034 121.8C327.287 119.773 326.194 117.987 324.754 116.44C323.314 114.893 321.66 113.667 319.794 112.76C317.927 111.853 315.9 111.4 313.714 111.4C312.327 111.4 310.887 111.667 309.394 112.2C307.9 112.733 306.46 113.507 305.074 114.52C303.74 115.48 302.62 116.573 301.714 117.8C300.807 119.027 300.247 120.333 300.034 121.72V134.52C300.887 136.493 302.034 138.28 303.474 139.88C304.914 141.427 306.567 142.68 308.434 143.64C310.354 144.547 312.327 145 314.354 145ZM450.889 129.88L417.369 149.88V143.88L442.969 128.28L417.369 112.6V106.76L450.889 126.92V129.88Z" fill="#FFAF00"/>
<path d="M2.64 126.92L36.16 106.76V112.6L10.56 128.28L36.16 143.88V149.88L2.64 129.88V126.92ZM196.266 149.8C193.279 149.8 190.506 149.24 187.946 148.12C185.386 146.947 183.172 145.373 181.306 143.4C179.439 141.373 177.972 139.053 176.906 136.44C175.892 133.827 175.386 131.027 175.386 128.04C175.386 124.147 176.266 120.573 178.026 117.32C179.839 114.067 182.319 111.48 185.466 109.56C188.612 107.587 192.186 106.6 196.186 106.6C200.292 106.6 203.866 107.587 206.906 109.56C209.999 111.533 212.426 114.147 214.186 117.4C215.946 120.6 216.826 124.12 216.826 127.96C216.826 128.387 216.826 128.813 216.826 129.24C216.826 129.613 216.799 129.907 216.746 130.12H181.066C181.332 133.107 182.159 135.773 183.546 138.12C184.986 140.413 186.826 142.253 189.066 143.64C191.359 144.973 193.839 145.64 196.506 145.64C199.226 145.64 201.786 144.947 204.186 143.56C206.639 142.173 208.346 140.36 209.306 138.12L214.026 139.4C213.172 141.373 211.866 143.16 210.106 144.76C208.346 146.36 206.266 147.613 203.866 148.52C201.519 149.373 198.986 149.8 196.266 149.8ZM180.906 126.2H211.706C211.492 123.16 210.666 120.493 209.226 118.2C207.839 115.907 205.999 114.12 203.706 112.84C201.466 111.507 198.986 110.84 196.266 110.84C193.546 110.84 191.066 111.507 188.826 112.84C186.586 114.12 184.746 115.933 183.306 118.28C181.919 120.573 181.119 123.213 180.906 126.2ZM361.969 149.8C358.982 149.8 356.209 149.24 353.649 148.12C351.089 146.947 348.875 145.373 347.009 143.4C345.142 141.373 343.675 139.053 342.609 136.44C341.595 133.827 341.089 131.027 341.089 128.04C341.089 124.147 341.969 120.573 343.729 117.32C345.542 114.067 348.022 111.48 351.169 109.56C354.315 107.587 357.889 106.6 361.889 106.6C365.995 106.6 369.569 107.587 372.609 109.56C375.702 111.533 378.129 114.147 379.889 117.4C381.649 120.6 382.529 124.12 382.529 127.96C382.529 128.387 382.529 128.813 382.529 129.24C382.529 129.613 382.502 129.907 382.449 130.12H346.769C347.035 133.107 347.862 135.773 349.249 138.12C350.689 140.413 352.529 142.253 354.769 143.64C357.062 144.973 359.542 145.64 362.209 145.64C364.929 145.64 367.489 144.947 369.889 143.56C372.342 142.173 374.049 140.36 375.009 138.12L379.729 139.4C378.875 141.373 377.569 143.16 375.809 144.76C374.049 146.36 371.969 147.613 369.569 148.52C367.222 149.373 364.689 149.8 361.969 149.8ZM346.609 126.2H377.409C377.195 123.16 376.369 120.493 374.929 118.2C373.542 115.907 371.702 114.12 369.409 112.84C367.169 111.507 364.689 110.84 361.969 110.84C359.249 110.84 356.769 111.507 354.529 112.84C352.289 114.12 350.449 115.933 349.009 118.28C347.622 120.573 346.822 123.213 346.609 126.2Z" fill="#3C7F72"/>
</svg>
