<svg width="842" height="595" viewBox="0 0 842 595" fill="none" xmlns="http://www.w3.org/2000/svg">
<g clip-path="url(#clip0_614_23)">
<path d="M236.421 264.92L269.941 244.76V250.6L244.341 266.28L269.941 281.88V287.88L236.421 267.88V264.92ZM302.156 351.8C299.17 351.8 296.396 351.24 293.836 350.12C291.276 348.947 289.063 347.373 287.196 345.4C285.33 343.373 283.863 341.053 282.796 338.44C281.783 335.827 281.276 333.027 281.276 330.04C281.276 326.147 282.156 322.573 283.916 319.32C285.73 316.067 288.21 313.48 291.356 311.56C294.503 309.587 298.076 308.6 302.076 308.6C306.183 308.6 309.756 309.587 312.796 311.56C315.89 313.533 318.316 316.147 320.076 319.4C321.836 322.6 322.716 326.12 322.716 329.96C322.716 330.387 322.716 330.813 322.716 331.24C322.716 331.613 322.69 331.907 322.636 332.12H286.956C287.223 335.107 288.05 337.773 289.436 340.12C290.876 342.413 292.716 344.253 294.956 345.64C297.25 346.973 299.73 347.64 302.396 347.64C305.116 347.64 307.676 346.947 310.076 345.56C312.53 344.173 314.236 342.36 315.196 340.12L319.916 341.4C319.063 343.373 317.756 345.16 315.996 346.76C314.236 348.36 312.156 349.613 309.756 350.52C307.41 351.373 304.876 351.8 302.156 351.8ZM286.796 328.2H317.596C317.383 325.16 316.556 322.493 315.116 320.2C313.73 317.907 311.89 316.12 309.596 314.84C307.356 313.507 304.876 312.84 302.156 312.84C299.436 312.84 296.956 313.507 294.716 314.84C292.476 316.12 290.636 317.933 289.196 320.28C287.81 322.573 287.01 325.213 286.796 328.2ZM457.776 351.8C454.789 351.8 452.016 351.24 449.456 350.12C446.949 348.947 444.762 347.373 442.896 345.4C441.082 343.373 439.669 341.08 438.656 338.52C437.642 335.907 437.136 333.16 437.136 330.28C437.136 327.293 437.642 324.52 438.656 321.96C439.669 319.347 441.109 317.053 442.976 315.08C444.842 313.053 447.029 311.48 449.536 310.36C452.096 309.187 454.869 308.6 457.856 308.6C460.842 308.6 463.589 309.187 466.096 310.36C468.602 311.48 470.789 313.053 472.656 315.08C474.522 317.053 475.962 319.347 476.976 321.96C477.989 324.52 478.496 327.293 478.496 330.28C478.496 333.16 477.989 335.907 476.976 338.52C475.962 341.08 474.522 343.373 472.656 345.4C470.842 347.373 468.656 348.947 466.096 350.12C463.589 351.24 460.816 351.8 457.776 351.8ZM442.656 330.36C442.656 333.453 443.322 336.28 444.656 338.84C446.042 341.347 447.882 343.347 450.176 344.84C452.469 346.28 455.002 347 457.776 347C460.549 347 463.082 346.253 465.376 344.76C467.669 343.267 469.509 341.24 470.896 338.68C472.282 336.067 472.976 333.24 472.976 330.2C472.976 327.107 472.282 324.28 470.896 321.72C469.509 319.16 467.669 317.133 465.376 315.64C463.082 314.147 460.549 313.4 457.776 313.4C455.002 313.4 452.469 314.173 450.176 315.72C447.936 317.267 446.122 319.32 444.736 321.88C443.349 324.387 442.656 327.213 442.656 330.36Z" fill="#D34A24"/>
<path d="M277.606 266.28C277.606 262.333 278.406 258.733 280.006 255.48C281.66 252.173 283.926 249.533 286.806 247.56C289.686 245.587 292.966 244.6 296.646 244.6C300.113 244.6 303.206 245.533 305.926 247.4C308.7 249.213 310.86 251.427 312.406 254.04V228.6H317.846V280.44C317.846 281.187 318.006 281.747 318.326 282.12C318.646 282.44 319.126 282.627 319.766 282.68V287C318.7 287.16 317.873 287.213 317.286 287.16C316.166 287.107 315.18 286.653 314.326 285.8C313.473 284.947 313.046 284.013 313.046 283V278.92C311.393 281.64 309.153 283.8 306.326 285.4C303.5 287 300.566 287.8 297.526 287.8C294.646 287.8 291.98 287.213 289.526 286.04C287.126 284.867 285.02 283.267 283.206 281.24C281.446 279.213 280.06 276.92 279.046 274.36C278.086 271.747 277.606 269.053 277.606 266.28ZM312.406 272.68V259.8C311.713 257.88 310.593 256.147 309.046 254.6C307.5 253 305.74 251.747 303.766 250.84C301.846 249.88 299.926 249.4 298.006 249.4C295.766 249.4 293.74 249.88 291.926 250.84C290.113 251.747 288.54 253 287.206 254.6C285.926 256.2 284.94 258.013 284.246 260.04C283.553 262.067 283.206 264.147 283.206 266.28C283.206 268.52 283.58 270.653 284.326 272.68C285.126 274.707 286.246 276.52 287.686 278.12C289.126 279.667 290.78 280.867 292.646 281.72C294.513 282.573 296.54 283 298.726 283C300.113 283 301.553 282.733 303.046 282.2C304.54 281.667 305.953 280.947 307.286 280.04C308.673 279.08 309.82 277.96 310.726 276.68C311.633 275.4 312.193 274.067 312.406 272.68ZM279.705 294.2L241.945 351H235.785L273.545 294.2H279.705ZM418.459 292.6H423.899V341.56C423.899 343.64 424.272 345 425.019 345.64C425.765 346.28 426.672 346.6 427.739 346.6C428.699 346.6 429.659 346.493 430.619 346.28C431.579 346.067 432.405 345.853 433.099 345.64L434.059 350.04C433.045 350.467 431.792 350.813 430.299 351.08C428.859 351.347 427.605 351.48 426.539 351.48C424.085 351.48 422.112 350.76 420.619 349.32C419.179 347.88 418.459 345.907 418.459 343.4V292.6ZM604.722 314.12C601.095 314.227 597.895 315.24 595.122 317.16C592.402 319.08 590.482 321.72 589.362 325.08V351H583.922V309.32H589.042V319.32C590.482 316.387 592.375 314.013 594.722 312.2C597.122 310.387 599.655 309.373 602.322 309.16C602.855 309.107 603.309 309.08 603.682 309.08C604.109 309.08 604.455 309.107 604.722 309.16V314.12Z" fill="#992800"/>
<path d="M362.092 267.88L328.572 287.88V281.88L354.172 266.28L328.572 250.6V244.76L362.092 264.92V267.88ZM342.416 351L325.536 309.32H331.216L345.456 345.56L359.776 309.32H365.136L348.256 351H342.416ZM508.874 351.8C505.407 351.8 502.287 350.893 499.514 349.08C496.794 347.267 494.634 345.027 493.034 342.36V368.04H487.594V309.32H492.474V317.4C494.127 314.787 496.34 312.68 499.114 311.08C501.887 309.427 504.847 308.6 507.994 308.6C510.874 308.6 513.514 309.213 515.914 310.44C518.314 311.613 520.394 313.213 522.154 315.24C523.914 317.267 525.274 319.587 526.234 322.2C527.247 324.76 527.754 327.427 527.754 330.2C527.754 334.093 526.954 337.693 525.354 341C523.807 344.253 521.62 346.867 518.794 348.84C515.967 350.813 512.66 351.8 508.874 351.8ZM507.354 347C509.647 347 511.7 346.547 513.514 345.64C515.327 344.68 516.874 343.4 518.154 341.8C519.487 340.2 520.5 338.413 521.194 336.44C521.887 334.413 522.234 332.333 522.234 330.2C522.234 327.96 521.834 325.827 521.034 323.8C520.287 321.773 519.194 319.987 517.754 318.44C516.314 316.893 514.66 315.667 512.794 314.76C510.927 313.853 508.9 313.4 506.714 313.4C505.327 313.4 503.887 313.667 502.394 314.2C500.9 314.733 499.46 315.507 498.074 316.52C496.74 317.48 495.62 318.573 494.714 319.8C493.807 321.027 493.247 322.333 493.034 323.72V336.52C493.887 338.493 495.034 340.28 496.474 341.88C497.914 343.427 499.567 344.68 501.434 345.64C503.354 346.547 505.327 347 507.354 347ZM643.889 331.88L610.369 351.88V345.88L635.969 330.28L610.369 314.6V308.76L643.889 328.92V331.88Z" fill="#FFAF00"/>
<path d="M195.64 328.92L229.16 308.76V314.6L203.56 330.28L229.16 345.88V351.88L195.64 331.88V328.92ZM389.266 351.8C386.279 351.8 383.506 351.24 380.946 350.12C378.386 348.947 376.172 347.373 374.306 345.4C372.439 343.373 370.972 341.053 369.906 338.44C368.892 335.827 368.386 333.027 368.386 330.04C368.386 326.147 369.266 322.573 371.026 319.32C372.839 316.067 375.319 313.48 378.466 311.56C381.612 309.587 385.186 308.6 389.186 308.6C393.292 308.6 396.866 309.587 399.906 311.56C402.999 313.533 405.426 316.147 407.186 319.4C408.946 322.6 409.826 326.12 409.826 329.96C409.826 330.387 409.826 330.813 409.826 331.24C409.826 331.613 409.799 331.907 409.746 332.12H374.066C374.332 335.107 375.159 337.773 376.546 340.12C377.986 342.413 379.826 344.253 382.066 345.64C384.359 346.973 386.839 347.64 389.506 347.64C392.226 347.64 394.786 346.947 397.186 345.56C399.639 344.173 401.346 342.36 402.306 340.12L407.026 341.4C406.172 343.373 404.866 345.16 403.106 346.76C401.346 348.36 399.266 349.613 396.866 350.52C394.519 351.373 391.986 351.8 389.266 351.8ZM373.906 328.2H404.706C404.492 325.16 403.666 322.493 402.226 320.2C400.839 317.907 398.999 316.12 396.706 314.84C394.466 313.507 391.986 312.84 389.266 312.84C386.546 312.84 384.066 313.507 381.826 314.84C379.586 316.12 377.746 317.933 376.306 320.28C374.919 322.573 374.119 325.213 373.906 328.2ZM554.969 351.8C551.982 351.8 549.209 351.24 546.649 350.12C544.089 348.947 541.875 347.373 540.009 345.4C538.142 343.373 536.675 341.053 535.609 338.44C534.595 335.827 534.089 333.027 534.089 330.04C534.089 326.147 534.969 322.573 536.729 319.32C538.542 316.067 541.022 313.48 544.169 311.56C547.315 309.587 550.889 308.6 554.889 308.6C558.995 308.6 562.569 309.587 565.609 311.56C568.702 313.533 571.129 316.147 572.889 319.4C574.649 322.6 575.529 326.12 575.529 329.96C575.529 330.387 575.529 330.813 575.529 331.24C575.529 331.613 575.502 331.907 575.449 332.12H539.769C540.035 335.107 540.862 337.773 542.249 340.12C543.689 342.413 545.529 344.253 547.769 345.64C550.062 346.973 552.542 347.64 555.209 347.64C557.929 347.64 560.489 346.947 562.889 345.56C565.342 344.173 567.049 342.36 568.009 340.12L572.729 341.4C571.875 343.373 570.569 345.16 568.809 346.76C567.049 348.36 564.969 349.613 562.569 350.52C560.222 351.373 557.689 351.8 554.969 351.8ZM539.609 328.2H570.409C570.195 325.16 569.369 322.493 567.929 320.2C566.542 317.907 564.702 316.12 562.409 314.84C560.169 313.507 557.689 312.84 554.969 312.84C552.249 312.84 549.769 313.507 547.529 314.84C545.289 316.12 543.449 317.933 542.009 320.28C540.622 322.573 539.822 325.213 539.609 328.2Z" fill="#3C7F72"/>
<path d="M657.998 384.372C659.103 384.373 659.999 383.479 660 382.374C660.001 381.269 659.106 380.373 658.002 380.372L657.998 384.372ZM185 382L184.998 384L657.998 384.372L658 382.372L658.002 380.372L185.002 380L185 382Z" fill="#FFAF00"/>
<path d="M186.125 239C186.125 237.895 185.229 237 184.125 237C183.02 237 182.125 237.895 182.125 239H186.125ZM184.125 384H186.125L186.125 239H184.125H182.125L182.125 384H184.125Z" fill="#FFAF00"/>
<path d="M681 405C682.105 405 683 404.105 683 403C683 401.895 682.105 401 681 401V405ZM161 403V405H681V403V401H161V403Z" fill="#992800"/>
<path d="M165.125 215.002C165.125 213.897 164.231 213.001 163.126 213C162.021 212.999 161.125 213.894 161.125 214.998L165.125 215.002ZM163 405L165 405.002L165.125 215.002L163.125 215L161.125 214.998L161 404.998L163 405Z" fill="#992800"/>
<path d="M667 391C668.105 391 669 390.105 669 389C669 387.895 668.105 387 667 387V391ZM177 389V391L667 391V389V387L177 387V389Z" fill="#3C7F72"/>
<path d="M179.125 231C179.125 229.895 178.229 229 177.125 229C176.02 229 175.125 229.895 175.125 231H179.125ZM177.125 391H179.125L179.125 231H177.125H175.125L175.125 391H177.125Z" fill="#3C7F72"/>
<path d="M674 398.015C675.105 398.015 676 397.12 676 396.015C676 394.911 675.105 394.015 674 394.015L674 398.015ZM169 396L169 398L674 398.015L674 396.015L674 394.015L169 394L169 396Z" fill="#D34A24"/>
<path d="M172.125 223C172.125 221.895 171.229 221 170.125 221C169.02 221 168.125 221.895 168.125 223H172.125ZM170.125 398H172.125V223H170.125H168.125V398H170.125Z" fill="#D34A24"/>
<path d="M196 365C192.687 365 190 367.687 190 371C190 374.313 192.687 377 196 377C199.313 377 202 374.313 202 371C202 367.687 199.313 365 196 365ZM196 375.982C193.249 375.982 191.018 373.751 191.018 371C191.018 368.249 193.249 366.018 196 366.018C198.751 366.018 200.982 368.249 200.982 371C200.982 373.751 198.751 375.982 196 375.982ZM196.075 368.848C196.785 368.848 197.267 369.3 197.321 369.965C197.325 370.021 197.371 370.064 197.428 370.064H198.187C198.222 370.064 198.25 370.036 198.25 370.001C198.25 368.84 197.334 368.027 196.071 368.027C194.599 368.027 193.75 369.021 193.75 370.662V371.363C193.75 372.993 194.599 373.973 196.071 373.973C197.33 373.973 198.25 373.186 198.25 372.079C198.25 372.045 198.222 372.017 198.187 372.017H197.426C197.37 372.017 197.325 372.059 197.319 372.114C197.263 372.732 196.782 373.156 196.074 373.156C195.199 373.156 194.706 372.515 194.706 371.367V370.662C194.708 369.497 195.202 368.848 196.075 368.848Z" fill="#992800"/>
</g>
<defs>
<clipPath id="clip0_614_23">
<rect width="595" height="842" fill="white" transform="matrix(0 1 -1 0 842 0)"/>
</clipPath>
</defs>
</svg>
