<svg width="100" height="100" viewBox="0 0 100 100" xmlns="http://www.w3.org/2000/svg">
  <defs>
    <clipPath id="cupClip">
      <path d="M22 38 L26 78 Q50 84 74 78 L78 38 Z"/>
    </clipPath>
  </defs>

  <!-- Corps de la tasse -->
  <path d="M22 38 L26 78 Q50 84 74 78 L78 38 Z" fill="#E8D5C4"/>

  <!-- Soucoupe -->
  <ellipse cx="50" cy="82" rx="32" ry="5" fill="#8B5E3C"/>
  <ellipse cx="50" cy="80" rx="30" ry="4" fill="#C8906A"/>

  <!-- Café intérieur -->
  <ellipse cx="50" cy="42" rx="22" ry="5" fill="#3B1F0A" clip-path="url(#cupClip)"/>
  <ellipse cx="50" cy="42" rx="20" ry="3.5" fill="#4A2810"/>
  <ellipse cx="44" cy="41" rx="6" ry="1.5" fill="#6B3A1A" opacity="0.5"/>

  <!-- Bord tasse -->
  <ellipse cx="50" cy="38" rx="28" ry="5" fill="#E8D5C4"/>
  <ellipse cx="50" cy="38" rx="28" ry="5" fill="none" stroke="#C8906A" stroke-width="0.5"/>
  <ellipse cx="50" cy="38" rx="22" ry="3.5" fill="#3B1F0A"/>

  <!-- Anse -->
  <path d="M76 46 Q88 46 88 58 Q88 70 76 70" fill="none" stroke="#C8906A" stroke-width="5" stroke-linecap="round"/>
  <path d="M76 46 Q88 46 88 58 Q88 70 76 70" fill="none" stroke="#E8D5C4" stroke-width="3" stroke-linecap="round"/>

  <!-- Vapeur -->
  <path d="M40 33 Q37 27 40 22 Q43 17 40 12" fill="none" stroke="#B0B0B0" stroke-width="1.2" stroke-linecap="round" opacity="0.6"/>
  <path d="M50 31 Q47 24 50 18 Q53 12 50 7" fill="none" stroke="#B0B0B0" stroke-width="1.2" stroke-linecap="round" opacity="0.5"/>
  <path d="M60 33 Q57 27 60 22 Q63 17 60 12" fill="none" stroke="#B0B0B0" stroke-width="1.2" stroke-linecap="round" opacity="0.6"/>
</svg>
